<?xml version="1.0" encoding="UTF-8" standalone="no"?>
<!-- Created with Inkscape (http://www.inkscape.org/) -->

<svg
   xmlns:dc="http://purl.org/dc/elements/1.1/"
   xmlns:cc="http://creativecommons.org/ns#"
   xmlns:rdf="http://www.w3.org/1999/02/22-rdf-syntax-ns#"
   xmlns:svg="http://www.w3.org/2000/svg"
   xmlns="http://www.w3.org/2000/svg"
   version="1.1"
   width="744.09448"
   height="1052.3622"
   id="svg2">
  <defs
     id="defs4" />
  <metadata
     id="metadata7">
    <rdf:RDF>
      <cc:Work
         rdf:about="">
        <dc:format>image/svg+xml</dc:format>
        <dc:type
           rdf:resource="http://purl.org/dc/dcmitype/StillImage" />
        <dc:title></dc:title>
      </cc:Work>
    </rdf:RDF>
  </metadata>
  <g
     id="layer1" />
  <g
     transform="translate(369.76994,371.60948)"
     id="g3255">
    <path
       d="m 292.548,-13.179 12.866,3.181 12.858,5.078 0,9.84 -12.858,5.078 -12.866,3.181 -0.782,11.94 12.34,4.833 12.085,6.713 -1.284,9.756 -13.411,3.356 -13.171,1.474 -2.334,11.736 11.604,6.402 11.105,8.233 -2.546,9.506 -13.735,1.576 -13.25,-0.257 -3.846,11.331 10.669,7.862 9.936,9.612 -3.766,9.091 -13.823,-0.229 -13.103,-1.985 -5.292,10.732 9.551,9.187 8.597,10.827 -4.921,8.522 -13.674,-2.031 -12.732,-3.678 -6.648,9.949 8.271,10.355 7.109,11.856 -5.99,7.807 -13.292,-3.799 -12.144,-5.308 -7.889,8.996 6.848,11.346 5.501,12.683 -6.958,6.958 -12.683,-5.501 -11.346,-6.848 -8.996,7.889 5.308,12.144 3.799,13.292 -7.807,5.99 -11.856,-7.109 -10.355,-8.271 -9.949,6.648 3.678,12.732 2.031,13.674 -8.522,4.921 -10.827,-8.597 -9.187,-9.551 -10.732,5.292 1.985,13.103 0.229,13.823 -9.091,3.766 -9.612,-9.936 -7.862,-10.669 -11.331,3.846 0.257,13.25 -1.576,13.735 -9.506,2.546 -8.233,-11.105 -6.402,-11.604 -11.736,2.334 -1.474,13.171 -3.356,13.411 -9.756,1.284 -6.713,-12.085 -4.833,-12.34 -11.94,0.782 -3.181,12.866 -5.078,12.858 -9.84,0 -5.078,-12.858 -3.181,-12.866 -11.94,-0.782 -4.833,12.34 -6.713,12.085 -9.756,-1.284 -3.356,-13.411 -1.474,-13.171 -11.736,-2.334 -6.402,11.604 -8.233,11.105 -9.506,-2.546 -1.576,-13.735 0.257,-13.25 -11.331,-3.846 -7.862,10.669 -9.612,9.936 -9.091,-3.766 0.229,-13.823 1.985,-13.103 -10.732,-5.292 -9.187,9.551 -10.827,8.597 -8.522,-4.921 2.031,-13.674 3.678,-12.732 -9.949,-6.648 -10.355,8.271 -11.856,7.109 -7.807,-5.99 3.799,-13.292 5.308,-12.144 -8.996,-7.889 -11.346,6.848 -12.683,5.501 -6.958,-6.958 5.501,-12.683 6.848,-11.346 -7.889,-8.996 -12.144,5.308 -13.292,3.799 -5.99,-7.807 7.109,-11.856 8.271,-10.355 -6.648,-9.949 -12.732,3.678 -13.674,2.031 -4.921,-8.522 8.597,-10.827 9.551,-9.187 -5.292,-10.732 -13.103,1.985 -13.823,0.229 -3.766,-9.091 9.936,-9.612 10.669,-7.862 -3.846,-11.331 -13.25,0.257 -13.735,-1.576 -2.546,-9.506 11.105,-8.233 11.604,-6.402 -2.334,-11.736 -13.171,-1.474 -13.411,-3.356 -1.284,-9.756 12.085,-6.713 12.34,-4.833 -0.782,-11.94 -12.866,-3.181 -12.858,-5.078 0,-9.84 12.858,-5.078 12.866,-3.181 0.782,-11.94 -12.34,-4.833 -12.085,-6.713 1.284,-9.756 13.411,-3.356 13.171,-1.474 2.334,-11.736 -11.604,-6.402 -11.105,-8.233 2.546,-9.506 13.735,-1.576 13.25,0.257 3.846,-11.331 -10.669,-7.862 -9.936,-9.612 3.766,-9.091 13.823,0.229 13.103,1.985 5.292,-10.732 -9.551,-9.187 -8.597,-10.827 4.921,-8.522 13.674,2.031 12.732,3.678 6.648,-9.949 -8.271,-10.355 -7.109,-11.856 5.99,-7.807 13.292,3.799 12.144,5.308 7.889,-8.996 -6.848,-11.346 -5.501,-12.683 6.958,-6.958 12.683,5.501 11.346,6.848 8.996,-7.889 -5.308,-12.144 -3.799,-13.292 7.807,-5.99 11.856,7.109 10.355,8.271 9.949,-6.648 -3.678,-12.732 -2.031,-13.674 8.522,-4.921 10.827,8.597 9.187,9.551 10.732,-5.292 -1.985,-13.103 -0.229,-13.823 9.091,-3.766 9.612,9.936 7.862,10.669 11.331,-3.846 -0.257,-13.25 1.576,-13.735 9.506,-2.546 8.233,11.105 6.402,11.604 11.736,-2.334 1.474,-13.171 3.356,-13.411 9.756,-1.284 6.713,12.085 4.833,12.34 11.94,-0.782 3.181,-12.866 5.078,-12.858 9.84,0 5.078,12.858 3.181,12.866 11.94,0.782 4.833,-12.34 6.713,-12.085 9.756,1.284 3.356,13.411 1.474,13.171 11.736,2.334 6.402,-11.604 8.233,-11.105 9.506,2.546 1.576,13.735 -0.257,13.25 11.331,3.846 7.862,-10.669 9.612,-9.936 9.091,3.766 -0.229,13.823 -1.985,13.103 10.732,5.292 9.187,-9.551 10.827,-8.597 8.522,4.921 -2.031,13.674 -3.678,12.732 9.949,6.648 10.355,-8.271 11.856,-7.109 7.807,5.99 -3.799,13.292 -5.308,12.144 8.996,7.889 11.346,-6.848 12.683,-5.501 6.958,6.958 -5.501,12.683 -6.848,11.346 7.889,8.996 12.144,-5.308 13.292,-3.799 5.99,7.807 -7.109,11.856 -8.271,10.355 6.648,9.949 12.732,-3.678 13.674,-2.031 4.921,8.522 -8.597,10.827 -9.551,9.187 5.292,10.732 13.103,-1.985 13.823,-0.229 3.766,9.091 -9.936,9.612 -10.669,7.862 3.846,11.331 13.25,-0.257 13.735,1.576 2.546,9.506 -11.105,8.233 -11.604,6.402 2.334,11.736 13.171,1.474 13.411,3.356 1.284,9.756 -12.085,6.713 -12.34,4.833 z"
       id="path3257"
       style="fill:none;stroke:#000000" />
  </g>
  <g
     transform="translate(369.76994,371.60948)"
     id="g3271">
    <path
       d="m 241.575,-12.839 12.877,2.842 12.884,5.155 0,9.684 -12.884,5.155 -12.877,2.842 -0.966,12.271 12.274,4.821 11.92,7.107 -1.515,9.565 -13.533,3.076 -13.163,0.792 -2.873,11.969 11.368,6.682 10.661,8.884 -2.992,9.211 -13.848,0.921 -13.124,-1.277 -4.711,11.372 10.184,8.378 9.14,10.443 -4.397,8.629 -13.821,-1.257 -12.763,-3.314 -6.432,10.495 8.748,9.868 7.394,11.744 -5.692,7.835 -13.455,-3.403 -12.088,-5.27 -7.994,9.36 7.097,11.114 5.465,12.756 -6.848,6.848 -12.756,-5.465 -11.114,-7.097 -9.36,7.994 5.27,12.088 3.403,13.455 -7.835,5.692 -11.744,-7.394 -9.868,-8.748 -10.495,6.432 3.314,12.763 1.257,13.821 -8.629,4.397 -10.443,-9.14 -8.378,-10.184 -11.372,4.711 1.277,13.124 -0.921,13.848 -9.211,2.992 -8.884,-10.661 -6.682,-11.368 -11.969,2.873 -0.792,13.163 -3.076,13.533 -9.565,1.515 -7.107,-11.92 -4.821,-12.274 -12.271,0.966 -2.842,12.877 -5.155,12.884 -9.684,0 -5.155,-12.884 -2.842,-12.877 -12.271,-0.966 -4.821,12.274 -7.107,11.92 -9.565,-1.515 -3.076,-13.533 -0.792,-13.163 -11.969,-2.873 -6.682,11.368 -8.884,10.661 -9.211,-2.992 -0.921,-13.848 1.277,-13.124 -11.372,-4.711 -8.378,10.184 -10.443,9.14 -8.629,-4.397 1.257,-13.821 3.314,-12.763 -10.495,-6.432 -9.868,8.748 -11.744,7.394 -7.835,-5.692 3.403,-13.455 5.27,-12.088 -9.36,-7.994 -11.114,7.097 -12.756,5.465 -6.848,-6.848 5.465,-12.756 7.097,-11.114 -7.994,-9.36 -12.088,5.27 -13.455,3.403 -5.692,-7.835 7.394,-11.744 8.748,-9.868 -6.432,-10.495 -12.763,3.314 -13.821,1.257 -4.397,-8.629 9.14,-10.443 10.184,-8.378 -4.711,-11.372 -13.124,1.277 -13.848,-0.921 -2.992,-9.211 10.661,-8.884 11.368,-6.682 -2.873,-11.969 -13.163,-0.792 -13.533,-3.076 -1.515,-9.565 11.92,-7.107 12.274,-4.821 -0.966,-12.271 -12.877,-2.842 -12.884,-5.155 0,-9.684 12.884,-5.155 12.877,-2.842 0.966,-12.271 -12.274,-4.821 -11.92,-7.107 1.515,-9.565 13.533,-3.076 13.163,-0.792 2.873,-11.969 -11.368,-6.682 -10.661,-8.884 2.992,-9.211 13.848,-0.921 13.124,1.277 4.711,-11.372 -10.184,-8.378 -9.14,-10.443 4.397,-8.629 13.821,1.257 12.763,3.314 6.432,-10.495 -8.748,-9.868 -7.394,-11.744 5.692,-7.835 13.455,3.403 12.088,5.27 7.994,-9.36 -7.097,-11.114 -5.465,-12.756 6.848,-6.848 12.756,5.465 11.114,7.097 9.36,-7.994 -5.27,-12.088 -3.403,-13.455 7.835,-5.692 11.744,7.394 9.868,8.748 10.495,-6.432 -3.314,-12.763 -1.257,-13.821 8.629,-4.397 10.443,9.14 8.378,10.184 11.372,-4.711 -1.277,-13.124 0.921,-13.848 9.211,-2.992 8.884,10.661 6.682,11.368 11.969,-2.873 0.792,-13.163 3.076,-13.533 9.565,-1.515 7.107,11.92 4.821,12.274 12.271,-0.966 2.842,-12.877 5.155,-12.884 9.684,0 5.155,12.884 2.842,12.877 12.271,0.966 4.821,-12.274 7.107,-11.92 9.565,1.515 3.076,13.533 0.792,13.163 11.969,2.873 6.682,-11.368 8.884,-10.661 9.211,2.992 0.921,13.848 -1.277,13.124 11.372,4.711 8.378,-10.184 10.443,-9.14 8.629,4.397 -1.257,13.821 -3.314,12.763 10.495,6.432 9.868,-8.748 11.744,-7.394 7.835,5.692 -3.403,13.455 -5.27,12.088 9.36,7.994 11.114,-7.097 12.756,-5.465 6.848,6.848 -5.465,12.756 -7.097,11.114 7.994,9.36 12.088,-5.27 13.455,-3.403 5.692,7.835 -7.394,11.744 -8.748,9.868 6.432,10.495 12.763,-3.314 13.821,-1.257 4.397,8.629 -9.14,10.443 -10.184,8.378 4.711,11.372 13.124,-1.277 13.848,0.921 2.992,9.211 -10.661,8.884 -11.368,6.682 2.873,11.969 13.163,0.792 13.533,3.076 1.515,9.565 -11.92,7.107 -12.274,4.821 z"
       id="path3273"
       style="fill:none;stroke:#000000" />
  </g>
  <g
     transform="translate(369.76994,371.60948)"
     id="g3291">
    <path
       d="m 190.595,-12.213 0.446,-0.029 12.432,2.246 12.926,5.266 0,9.46 -12.926,5.266 -12.432,2.246 -0.446,-0.029 -1.28,12.992 0.443,0.059 11.755,4.628 11.651,7.686 -1.846,9.279 -13.705,2.643 -12.631,-0.223 -0.432,-0.115 -3.789,12.492 0.422,0.144 10.627,6.833 9.927,9.811 -3.621,8.74 -13.957,-0.081 -12.345,-2.683 -0.401,-0.197 -6.154,11.513 0.387,0.224 9.089,8.774 7.822,11.56 -5.256,7.866 -13.673,-2.803 -11.585,-5.04 -0.354,-0.271 -8.282,10.091 0.335,0.295 7.203,10.379 5.417,12.863 -6.69,6.69 -12.863,-5.417 -10.379,-7.203 -0.295,-0.335 -10.091,8.282 0.271,0.354 5.04,11.585 2.803,13.673 -7.866,5.256 -11.56,-7.822 -8.774,-9.089 -0.224,-0.387 -11.513,6.154 0.197,0.401 2.683,12.345 0.081,13.957 -8.74,3.621 -9.811,-9.927 -6.833,-10.627 -0.144,-0.422 -12.492,3.789 0.115,0.432 0.223,12.631 -2.643,13.705 -9.279,1.846 -7.686,-11.651 -4.628,-11.755 -0.059,-0.443 -12.992,1.28 0.029,0.446 -2.246,12.432 -5.266,12.926 -9.46,0 -5.266,-12.926 -2.246,-12.432 0.029,-0.446 -12.992,-1.28 -0.059,0.443 -4.628,11.755 -7.686,11.651 -9.279,-1.846 -2.643,-13.705 0.223,-12.631 0.115,-0.432 -12.492,-3.789 -0.144,0.422 -6.833,10.627 -9.811,9.927 -8.74,-3.621 0.081,-13.957 2.683,-12.345 0.197,-0.401 -11.513,-6.154 -0.224,0.387 -8.774,9.089 -11.56,7.822 -7.866,-5.256 2.803,-13.673 5.04,-11.585 0.271,-0.354 -10.091,-8.282 -0.295,0.335 -10.379,7.203 -12.863,5.417 -6.69,-6.69 5.417,-12.863 7.203,-10.379 0.335,-0.295 -8.282,-10.091 -0.354,0.271 -11.585,5.04 -13.673,2.803 -5.256,-7.866 7.822,-11.56 9.089,-8.774 0.387,-0.224 -6.154,-11.513 -0.401,0.197 -12.345,2.683 -13.957,0.081 -3.621,-8.74 9.927,-9.811 10.627,-6.833 0.422,-0.144 -3.789,-12.492 -0.432,0.115 -12.631,0.223 -13.705,-2.643 -1.846,-9.279 11.651,-7.686 11.755,-4.628 0.443,-0.059 -1.28,-12.992 -0.446,0.029 -12.432,-2.246 -12.926,-5.266 0,-9.46 12.926,-5.266 12.432,-2.246 0.446,0.029 1.28,-12.992 -0.443,-0.059 -11.755,-4.628 -11.651,-7.686 1.846,-9.279 13.705,-2.643 12.631,0.223 0.432,0.115 3.789,-12.492 -0.422,-0.144 -10.627,-6.833 -9.927,-9.811 3.621,-8.74 13.957,0.081 12.345,2.683 0.401,0.197 6.154,-11.513 -0.387,-0.224 -9.089,-8.774 -7.822,-11.56 5.256,-7.866 13.673,2.803 11.585,5.04 0.354,0.271 8.282,-10.091 -0.335,-0.295 -7.203,-10.379 -5.417,-12.863 6.69,-6.69 12.863,5.417 10.379,7.203 0.295,0.335 10.091,-8.282 -0.271,-0.354 -5.04,-11.585 -2.803,-13.673 7.866,-5.256 11.56,7.822 8.774,9.089 0.224,0.387 11.513,-6.154 -0.197,-0.401 -2.683,-12.345 -0.081,-13.957 8.74,-3.621 9.811,9.927 6.833,10.627 0.144,0.422 12.492,-3.789 -0.115,-0.432 -0.223,-12.631 2.643,-13.705 9.279,-1.846 7.686,11.651 4.628,11.755 0.059,0.443 12.992,-1.28 -0.029,-0.446 2.246,-12.432 5.266,-12.926 9.46,0 5.266,12.926 2.246,12.432 -0.029,0.446 12.992,1.28 0.059,-0.443 4.628,-11.755 7.686,-11.651 9.279,1.846 2.643,13.705 -0.223,12.631 -0.115,0.432 12.492,3.789 0.144,-0.422 6.833,-10.627 9.811,-9.927 8.74,3.621 -0.081,13.957 -2.683,12.345 -0.197,0.401 11.513,6.154 0.224,-0.387 8.774,-9.089 11.56,-7.822 7.866,5.256 -2.803,13.673 -5.04,11.585 -0.271,0.354 10.091,8.282 0.295,-0.335 10.379,-7.203 12.863,-5.417 6.69,6.69 -5.417,12.863 -7.203,10.379 -0.335,0.295 8.282,10.091 0.354,-0.271 11.585,-5.04 13.673,-2.803 5.256,7.866 -7.822,11.56 -9.089,8.774 -0.387,0.224 6.154,11.513 0.401,-0.197 12.345,-2.683 13.957,-0.081 3.621,8.74 -9.927,9.811 -10.627,6.833 -0.422,0.144 3.789,12.492 0.432,-0.115 12.631,-0.223 13.705,2.643 1.846,9.279 -11.651,7.686 -11.755,4.628 -0.443,0.059 z"
       id="path3293"
       style="fill:none;stroke:#000000" />
  </g>
  <g
     transform="translate(369.76994,371.60948)"
     id="g3315">
    <path
       d="m 139.604,-11.242 3.507,-0.282 9.351,1.531 12.996,5.438 0,9.11 -12.996,5.438 -9.351,1.531 -3.507,-0.282 -1.847,14.031 3.461,0.635 8.635,3.9 11.146,8.616 -2.357,8.799 -13.962,1.889 -9.428,-0.94 -3.314,-1.181 -5.416,13.075 3.178,1.509 7.332,6.002 8.537,11.208 -4.555,7.889 -13.975,-1.789 -8.863,-3.349 -2.896,-1.998 -8.615,11.228 2.679,2.28 5.529,7.695 5.345,13.035 -6.442,6.442 -13.035,-5.345 -7.695,-5.529 -2.28,-2.679 -11.228,8.615 1.998,2.896 3.349,8.863 1.789,13.975 -7.889,4.555 -11.208,-8.537 -6.002,-7.332 -1.509,-3.178 -13.075,5.416 1.181,3.314 0.94,9.428 -1.889,13.962 -8.799,2.357 -8.616,-11.146 -3.9,-8.635 -0.635,-3.461 -14.031,1.847 0.282,3.507 -1.531,9.351 -5.438,12.996 -9.11,0 -5.438,-12.996 -1.531,-9.351 0.282,-3.507 -14.031,-1.847 -0.635,3.461 -3.9,8.635 -8.616,11.146 -8.799,-2.357 -1.889,-13.962 0.94,-9.428 1.181,-3.314 -13.075,-5.416 -1.509,3.178 -6.002,7.332 -11.208,8.537 -7.889,-4.555 1.789,-13.975 3.349,-8.863 1.998,-2.896 -11.228,-8.615 -2.28,2.679 -7.695,5.529 -13.035,5.345 -6.442,-6.442 5.345,-13.035 5.529,-7.695 2.679,-2.28 -8.615,-11.228 -2.896,1.998 -8.863,3.349 -13.975,1.789 -4.555,-7.889 8.537,-11.208 7.332,-6.002 3.178,-1.509 -5.416,-13.075 -3.314,1.181 -9.428,0.94 -13.962,-1.889 -2.357,-8.799 11.146,-8.616 8.635,-3.9 3.461,-0.635 -1.847,-14.031 -3.507,0.282 -9.351,-1.531 -12.996,-5.438 0,-9.11 12.996,-5.438 9.351,-1.531 3.507,0.282 1.847,-14.031 -3.461,-0.635 -8.635,-3.9 -11.146,-8.616 2.357,-8.799 13.962,-1.889 9.428,0.94 3.314,1.181 5.416,-13.075 -3.178,-1.509 -7.332,-6.002 -8.537,-11.208 4.555,-7.889 13.975,1.789 8.863,3.349 2.896,1.998 8.615,-11.228 -2.679,-2.28 -5.529,-7.695 -5.345,-13.035 6.442,-6.442 13.035,5.345 7.695,5.529 2.28,2.679 11.228,-8.615 -1.998,-2.896 -3.349,-8.863 -1.789,-13.975 7.889,-4.555 11.208,8.537 6.002,7.332 1.509,3.178 13.075,-5.416 -1.181,-3.314 -0.94,-9.428 1.889,-13.962 8.799,-2.357 8.616,11.146 3.9,8.635 0.635,3.461 14.031,-1.847 -0.282,-3.507 1.531,-9.351 5.438,-12.996 9.11,0 5.438,12.996 1.531,9.351 -0.282,3.507 14.031,1.847 0.635,-3.461 3.9,-8.635 8.616,-11.146 8.799,2.357 1.889,13.962 -0.94,9.428 -1.181,3.314 13.075,5.416 1.509,-3.178 6.002,-7.332 11.208,-8.537 7.889,4.555 -1.789,13.975 -3.349,8.863 -1.998,2.896 11.228,8.615 2.28,-2.679 7.695,-5.529 13.035,-5.345 6.442,6.442 -5.345,13.035 -5.529,7.695 -2.679,2.28 8.615,11.228 2.896,-1.998 8.863,-3.349 13.975,-1.789 4.555,7.889 -8.537,11.208 -7.332,6.002 -3.178,1.509 5.416,13.075 3.314,-1.181 9.428,-0.94 13.962,1.889 2.357,8.799 -11.146,8.616 -8.635,3.9 -3.461,0.635 z"
       id="path3317"
       style="fill:none;stroke:#000000" />
  </g>
  <g
     transform="translate(369.76994,371.60948)"
     id="g3343">
    <path
       d="m 88.558,-10.057 6.547,-0.743 6.264,0.816 13.144,5.747 0,8.474 -13.144,5.747 -6.264,0.816 -6.547,-0.743 -2.893,14.541 6.334,1.819 5.474,3.151 9.945,10.34 -3.243,7.829 -14.343,0.279 -6.1,-1.643 -5.764,-3.192 -8.237,12.327 5.155,4.104 3.852,5.007 5.231,13.358 -5.992,5.992 -13.358,-5.231 -5.007,-3.852 -4.104,-5.155 -12.327,8.237 3.192,5.764 1.643,6.1 -0.279,14.343 -7.829,3.243 -10.34,-9.945 -3.151,-5.474 -1.819,-6.334 -14.541,2.893 0.743,6.547 -0.816,6.264 -5.747,13.144 -8.474,0 -5.747,-13.144 -0.816,-6.264 0.743,-6.547 -14.541,-2.893 -1.819,6.334 -3.151,5.474 -10.34,9.945 -7.829,-3.243 -0.279,-14.343 1.643,-6.1 3.192,-5.764 -12.327,-8.237 -4.104,5.155 -5.007,3.852 -13.358,5.231 -5.992,-5.992 5.231,-13.358 3.852,-5.007 5.155,-4.104 -8.237,-12.327 -5.764,3.192 -6.1,1.643 -14.343,-0.279 -3.243,-7.829 9.945,-10.34 5.474,-3.151 6.334,-1.819 -2.893,-14.541 -6.547,0.743 -6.264,-0.816 -13.144,-5.747 0,-8.474 13.144,-5.747 6.264,-0.816 6.547,0.743 2.893,-14.541 -6.334,-1.819 -5.474,-3.151 -9.945,-10.34 3.243,-7.829 14.343,-0.279 6.1,1.643 5.764,3.192 8.237,-12.327 -5.155,-4.104 -3.852,-5.007 -5.231,-13.358 5.992,-5.992 13.358,5.231 5.007,3.852 4.104,5.155 12.327,-8.237 -3.192,-5.764 -1.643,-6.1 0.279,-14.343 7.829,-3.243 10.34,9.945 3.151,5.474 1.819,6.334 14.541,-2.893 -0.743,-6.547 0.816,-6.264 5.747,-13.144 8.474,0 5.747,13.144 0.816,6.264 -0.743,6.547 14.541,2.893 1.819,-6.334 3.151,-5.474 10.34,-9.945 7.829,3.243 0.279,14.343 -1.643,6.1 -3.192,5.764 12.327,8.237 4.104,-5.155 5.007,-3.852 13.358,-5.231 5.992,5.992 -5.231,13.358 -3.852,5.007 -5.155,4.104 8.237,12.327 5.764,-3.192 6.1,-1.643 14.343,0.279 3.243,7.829 -9.945,10.34 -5.474,3.151 -6.334,1.819 z"
       id="path3345"
       style="fill:none;stroke:#000000" />
  </g>
</svg>
